<mxfile host="app.diagrams.net" modified="2024-07-09T04:51:40.209Z" agent="Mozilla/5.0 (Windows NT 10.0; Win64; x64) AppleWebKit/537.36 (KHTML, like Gecko) Chrome/126.0.0.0 Safari/537.36 Edg/126.0.0.0" etag="hYe6Aq3bvIHUnpZG_wLB" version="24.6.4" type="onedrive">
  <diagram name="ページ1" id="Scy-gzJ7K-Zfmkn6SKLa">
    <mxGraphModel grid="1" page="0" gridSize="10" guides="1" tooltips="1" connect="1" arrows="1" fold="1" pageScale="1" pageWidth="827" pageHeight="1169" math="0" shadow="0">
      <root>
        <mxCell id="0" />
        <mxCell id="1" parent="0" />
        <mxCell id="HDAkrpDpmaC3TToD9LZm-6" style="edgeStyle=none;curved=1;rounded=0;orthogonalLoop=1;jettySize=auto;html=1;exitX=0.5;exitY=1;exitDx=0;exitDy=0;entryX=0.5;entryY=0;entryDx=0;entryDy=0;fontSize=12;startSize=8;endSize=8;" edge="1" parent="1" source="HDAkrpDpmaC3TToD9LZm-2" target="HDAkrpDpmaC3TToD9LZm-4">
          <mxGeometry relative="1" as="geometry" />
        </mxCell>
        <mxCell id="HDAkrpDpmaC3TToD9LZm-2" value="クラスLink定義&lt;div&gt;開始&lt;/div&gt;" style="rounded=0;whiteSpace=wrap;html=1;" vertex="1" parent="1">
          <mxGeometry x="80" y="-520" width="120" height="60" as="geometry" />
        </mxCell>
        <mxCell id="HDAkrpDpmaC3TToD9LZm-8" style="edgeStyle=none;curved=1;rounded=0;orthogonalLoop=1;jettySize=auto;html=1;exitX=0.5;exitY=1;exitDx=0;exitDy=0;entryX=0.5;entryY=0;entryDx=0;entryDy=0;fontSize=12;startSize=8;endSize=8;" edge="1" parent="1" source="HDAkrpDpmaC3TToD9LZm-3" target="HDAkrpDpmaC3TToD9LZm-5">
          <mxGeometry relative="1" as="geometry" />
        </mxCell>
        <mxCell id="HDAkrpDpmaC3TToD9LZm-3" value="self.head = node" style="rounded=1;whiteSpace=wrap;html=1;" vertex="1" parent="1">
          <mxGeometry x="80" y="-340" width="120" height="60" as="geometry" />
        </mxCell>
        <mxCell id="HDAkrpDpmaC3TToD9LZm-7" style="edgeStyle=none;curved=1;rounded=0;orthogonalLoop=1;jettySize=auto;html=1;exitX=0.5;exitY=1;exitDx=0;exitDy=0;fontSize=12;startSize=8;endSize=8;" edge="1" parent="1" source="HDAkrpDpmaC3TToD9LZm-4" target="HDAkrpDpmaC3TToD9LZm-3">
          <mxGeometry relative="1" as="geometry" />
        </mxCell>
        <mxCell id="HDAkrpDpmaC3TToD9LZm-4" value="def __init__(self, node)" style="rounded=1;whiteSpace=wrap;html=1;" vertex="1" parent="1">
          <mxGeometry x="80" y="-430" width="120" height="60" as="geometry" />
        </mxCell>
        <mxCell id="HDAkrpDpmaC3TToD9LZm-5" value="終了" style="rounded=0;whiteSpace=wrap;html=1;" vertex="1" parent="1">
          <mxGeometry x="80" y="-250" width="120" height="60" as="geometry" />
        </mxCell>
      </root>
    </mxGraphModel>
  </diagram>
</mxfile>
